<?xml version="1.0" encoding="utf-8"?>
<!-- Generator: Adobe Illustrator 19.0.0, SVG Export Plug-In . SVG Version: 6.00 Build 0)  -->
<svg version="1.1" id="Layer_1" xmlns="http://www.w3.org/2000/svg" xmlns:xlink="http://www.w3.org/1999/xlink" x="0px" y="0px"
	 viewBox="0 0 420 420" style="enable-background:new 0 0 420 420;" xml:space="preserve">
<style type="text/css">
	.st0{fill:#11556D;}
	.st1{fill:#0073A5;}
	.st2{fill:#DDDDDD;}
	.st3{fill:none;stroke:#0073A5;stroke-width:3;stroke-miterlimit:10;}
	.st4{fill:#0073A5;stroke:#0073A5;stroke-width:5;stroke-miterlimit:10;}
</style>
<circle id="XMLID_1_" class="st0" cx="210" cy="210" r="210"/>
<circle id="XMLID_2_" class="st1" cx="210" cy="210" r="185.5"/>
<circle id="XMLID_3_" class="st2" cx="210" cy="210" r="169.3"/>
<line id="XMLID_6_" class="st3" x1="8" y1="107.5" x2="8" y2="107.5"/>
<path id="XMLID_16_" class="st3" d="M81.5,374"/>
<path id="XMLID_15_" class="st3" d="M90.5,374"/>
<path id="XMLID_10_" class="st4" d="M154.3,121.1l8.2,12.3c0.5,0.8,0.4,1.8-0.3,2.5L81,216.6c-0.8,0.8-0.8,2.2,0.2,2.9l85.3,66.5
	c0.9,0.7,1,1.9,0.3,2.7l-11.6,15.1c-0.7,0.9-2,1-2.9,0.2L61.7,221c-0.8-0.7-0.9-2-0.1-2.8l89.7-97.3
	C152.1,119.9,153.6,120,154.3,121.1z"/>
<path id="XMLID_5_" class="st4" d="M254.9,311.7l-4.7-9.1c-0.9-1.8-0.5-4,1.1-5.2l86.2-70.8c2-1.6,2.1-4.6,0.3-6.3l-75.1-72.9
	c-1.7-1.6-1.7-4.2-0.1-5.9l10-10.7c1.7-1.8,4.6-1.8,6.3,0.1l78.9,90c1.5,1.7,1.4,4.4-0.4,6l-95.8,86.1
	C259.5,314.7,256.2,314.1,254.9,311.7z"/>
<path id="XMLID_19_" class="st1" d="M232.4,322.9l0.9-7.9c0.1-0.5-0.3-1-0.9-1.1l-14.4-1.5c-0.5-0.1-0.9-0.5-0.9-1.1l25-228.2
	c0-0.2,0-0.4-0.1-0.6l-9.2-16.2c-0.3-0.6-1.1-0.7-1.6-0.2L219.1,80c-0.1,0.1-0.2,0.3-0.2,0.5l-25,228.3c-0.1,0.5-0.5,0.9-1.1,0.9
	l-14.3-1.5c-0.5-0.1-1,0.3-1.1,0.9l-0.8,7.9c-0.1,0.5,0.3,1,0.9,1l17.5,1.9c0.5,0.1,0.9,0.5,0.9,1.1l-3.3,30.3
	c-0.1,0.5,0.3,1,0.9,1.1l15,1.6c0.5,0.1,1-0.3,1.1-0.9l3.3-30.4c0.1-0.5,0.5-0.9,1.1-0.9l17.6,1.9
	C231.9,323.8,232.3,323.4,232.4,322.9z"/>
</svg>
